name GIL02_slow1.mot
datacolumns 153
datarows 4
range 0.47499996 0.49999994
endheader

                time	           pelvis_tx	           pelvis_ty	           pelvis_tz	         pelvis_tilt	         pelvis_list	     pelvis_rotation	       hip_flexion_r	     hip_adduction_r	      hip_rotation_r	        knee_angle_r	       ankle_angle_r	    subtalar_angle_r	         mtp_angle_r	       hip_flexion_l	     hip_adduction_l	      hip_rotation_l	        knee_angle_l	       ankle_angle_l	    subtalar_angle_l	         mtp_angle_l	    lumbar_extension	      lumbar_bending	     lumbar_rotation	     ground_force_vx	     ground_force_vy	     ground_force_vz	     ground_force_px	     ground_force_py	     ground_force_pz	     ground_force_vx	     ground_force_vy	     ground_force_vz	     ground_force_px	     ground_force_py	     ground_force_pz	     ground_torque_x	     ground_torque_y	     ground_torque_z	     ground_torque_x	     ground_torque_y	     ground_torque_z	    ground_marker_px	    ground_marker_py	    ground_marker_pz	    ground_marker_px	    ground_marker_py	    ground_marker_pz	    ground_marker_px	    ground_marker_py	    ground_marker_pz	    ground_marker_px	    ground_marker_py	    ground_marker_pz	    ground_marker_px	    ground_marker_py	    ground_marker_pz	    ground_marker_px	    ground_marker_py	    ground_marker_pz	    ground_marker_px	    ground_marker_py	    ground_marker_pz	    ground_marker_px	    ground_marker_py	    ground_marker_pz	    ground_marker_px	    ground_marker_py	    ground_marker_pz	    ground_marker_px	    ground_marker_py	    ground_marker_pz	    ground_marker_px	    ground_marker_py	    ground_marker_pz	    ground_marker_px	    ground_marker_py	    ground_marker_pz	    ground_marker_px	    ground_marker_py	    ground_marker_pz	    ground_marker_px	    ground_marker_py	    ground_marker_pz	    ground_marker_px	    ground_marker_py	    ground_marker_pz	    ground_marker_px	    ground_marker_py	    ground_marker_pz	    ground_marker_px	    ground_marker_py	    ground_marker_pz	    ground_marker_px	    ground_marker_py	    ground_marker_pz	    ground_marker_px	    ground_marker_py	    ground_marker_pz	    ground_marker_px	    ground_marker_py	    ground_marker_pz	    ground_marker_px	    ground_marker_py	    ground_marker_pz	    ground_marker_px	    ground_marker_py	    ground_marker_pz	    ground_marker_px	    ground_marker_py	    ground_marker_pz	    ground_marker_px	    ground_marker_py	    ground_marker_pz	    ground_marker_px	    ground_marker_py	    ground_marker_pz	    ground_marker_px	    ground_marker_py	    ground_marker_pz	    ground_marker_px	    ground_marker_py	    ground_marker_pz	    ground_marker_px	    ground_marker_py	    ground_marker_pz	    ground_marker_px	    ground_marker_py	    ground_marker_pz	    ground_marker_px	    ground_marker_py	    ground_marker_pz	    ground_marker_px	    ground_marker_py	    ground_marker_pz	    ground_marker_px	    ground_marker_py	    ground_marker_pz	    ground_marker_px	    ground_marker_py	    ground_marker_pz	    ground_marker_px	    ground_marker_py	    ground_marker_pz	    ground_marker_px	    ground_marker_py	    ground_marker_pz	    ground_marker_px	    ground_marker_py	    ground_marker_pz	    ground_marker_px	    ground_marker_py	    ground_marker_pz	
          0.47499996	          0.93416476	          0.96196002	         -0.18534882	          1.54758453	          2.40281892	          2.38250041	         -5.33826065	         -1.36205220	         11.08085442	         -6.02564240	         10.58219814	          0.00000000	          0.00000000	         21.13306808	          2.40113997	         -0.10958134	        -28.14838791	          2.56914616	          0.00000000	          0.00000000	        -15.86714935	          0.60018760	         -0.40326080	        -12.47133294	        616.89915832	        -16.78738684	          0.84846503	          0.00000000	         -0.13417799	          0.00000000	          0.00000000	          0.00000000	          1.20115857	          0.00000000	         -0.21318475	          0.00000000	          1.33573328	          0.00000000	          0.00000000	          0.00000000	          0.00000000	          0.85279393	          0.89370537	         -0.18142918	          0.85269558	          0.86906213	         -0.11182200	          0.84768909	          0.87639332	         -0.26198915	          0.82646799	          0.46779138	         -0.12095997	          1.01298106	          0.48201323	         -0.26880479	          0.74962330	          0.06920879	         -0.15978567	          0.97597963	          0.09040694	         -0.26854822	          0.93416476	          0.96196002	         -0.18534882	          0.93812901	          0.95615494	         -0.06644172	          0.93020046	          0.96776509	         -0.30425593	          0.74672246	          0.99688125	         -0.14634487	          0.74886304	          0.99613059	         -0.23203848	          0.83968079	          0.46563095	         -0.06401259	          1.01188684	          0.48255670	         -0.32679191	          0.80581486	          0.47065070	         -0.17150676	          1.01877475	          0.45925111	         -0.21477689	          0.73992288	          0.06730348	         -0.12102655	          0.95196193	          0.09265621	         -0.29919282	          0.76059282	          0.08407249	         -0.18715957	          0.98531908	          0.10373718	         -0.24303269	          0.75998420	          1.43010342	         -0.15462042	          0.88101631	          1.34298503	         -0.11674131	          0.87850618	          1.34898508	         -0.22141331	          0.86371744	          1.35525393	         -0.16525900	          0.92868799	          1.18548274	         -0.18829913	          0.89799559	          0.56233913	          0.00933624	          1.12700582	          0.61100751	         -0.28473490	          0.90694332	          0.63049352	         -0.05326669	          1.03947210	          0.63481575	         -0.31570196	          0.89803201	          0.54579192	         -0.08064155	          1.05061448	          0.54771942	         -0.31271735	          0.78921425	          0.18296851	         -0.02397954	          0.97202259	          0.22998123	         -0.38522726	          0.76857668	          0.16081248	         -0.09813164	          0.96587485	          0.19153355	         -0.31322327	          0.87124091	          0.03870057	         -0.13993543	          1.08399010	          0.05737555	         -0.30590498	
          0.48333329	          0.93991035	          0.96111655	         -0.18536118	          1.43416595	          2.41802931	          2.29282045	         -5.67985296	         -1.38831878	         11.26939106	         -5.83665514	         10.80141354	          0.00000000	          0.00000000	         21.40032959	          2.45183825	         -0.14016001	        -26.08868027	          1.93449342	          0.00000000	          0.00000000	        -15.67513561	          0.60404533	         -0.17037305	        -10.16336901	        618.90611545	        -17.42868905	          0.85000439	          0.00000000	         -0.13370879	          0.00000000	          0.00000000	          0.00000000	          1.20164917	          0.00000000	         -0.21372679	          0.00000000	          1.38701587	          0.00000000	          0.00000000	          0.00000000	          0.00000000	          0.85823536	          0.89291513	         -0.18105671	          0.85813481	          0.86838734	         -0.11196156	          0.85338151	          0.87572491	         -0.26213664	          0.82872128	          0.46739015	         -0.12086276	          1.01985824	          0.48144889	         -0.26832840	          0.74991465	          0.06921217	         -0.15975265	          0.99797338	          0.08857146	         -0.26823339	          0.93991035	          0.96111655	         -0.18536118	          0.94367534	          0.95530462	         -0.06641101	          0.93614537	          0.96692842	         -0.30431134	          0.75243586	          0.99647892	         -0.14639878	          0.75483227	          0.99558550	         -0.23223941	          0.84203160	          0.46515030	         -0.06394115	          1.01885915	          0.48193768	         -0.32631776	          0.80810153	          0.47071597	         -0.17094879	          1.02445233	          0.45800409	         -0.21451701	          0.74016047	          0.06735819	         -0.12100451	          0.97411090	          0.08989324	         -0.29905280	          0.76075220	          0.08406419	         -0.18728498	          1.00696707	          0.10212573	         -0.24272814	          0.76580018	          1.42936587	         -0.15438165	          0.88709807	          1.34238589	         -0.11656406	          0.88434458	          1.34851444	         -0.22147407	          0.86971623	          1.35461318	         -0.16525398	          0.93489027	          1.18505669	         -0.18852836	          0.90132278	          0.56169456	          0.00934151	          1.13260055	          0.61043048	         -0.28407288	          0.91070950	          0.62998503	         -0.05312461	          1.04502511	          0.63386095	         -0.31482178	          0.90105236	          0.54521310	         -0.08036187	          1.05612135	          0.54690468	         -0.31219035	          0.78996032	          0.18287759	         -0.02377630	          0.98948079	          0.22797009	         -0.38506877	          0.76923776	          0.16074660	         -0.09851485	          0.98417383	          0.18954307	         -0.31283545	          0.87122416	          0.03863548	         -0.13990447	          1.10758281	          0.05845881	         -0.30400050	
          0.49166662	          0.94570184	          0.96023345	         -0.18534744	          1.33146095	          2.41018200	          2.19226384	         -6.03470612	         -1.37569749	         11.45602036	         -5.65982485	         11.01604939	          0.00000000	          0.00000000	         21.60770798	          2.45735765	         -0.17670433	        -24.00044060	          1.19469583	          0.00000000	          0.00000000	        -15.49671078	          0.68645054	          0.21426918	         -7.90548333	        621.18580175	        -18.25789016	          0.85152423	          0.00000000	         -0.13321777	          0.00000000	          0.00000000	          0.00000000	          1.20206934	          0.00000000	         -0.21424910	          0.00000000	          1.41566211	          0.00000000	          0.00000000	          0.00000000	          0.00000000	          0.86392641	          0.89230824	         -0.18065177	          0.86362886	          0.86769080	         -0.11204455	          0.85914421	          0.87496817	         -0.26223081	          0.83100504	          0.46702725	         -0.12081599	          1.02643418	          0.48071501	         -0.26793596	          0.75017267	          0.06924766	         -0.15966521	          1.01956606	          0.08715627	         -0.26783279	          0.94570184	          0.96023345	         -0.18534744	          0.94925517	          0.95446730	         -0.06634910	          0.94214851	          0.96599966	         -0.30434576	          0.75815386	          0.99602723	         -0.14649418	          0.76082879	          0.99495256	         -0.23248976	          0.84440136	          0.46469083	         -0.06391845	          1.02551115	          0.48116249	         -0.32592690	          0.81049103	          0.47147301	         -0.17171644	          1.02922451	          0.45734197	         -0.21381173	          0.74036402	          0.06745756	         -0.12092781	          0.99587148	          0.08756165	         -0.29880702	          0.76087379	          0.08417818	         -0.18739785	          1.02823102	          0.10110253	         -0.24205360	          0.77160281	          1.42860985	         -0.15396753	          0.89334613	          1.34164906	         -0.11701927	          0.89015424	          1.34800100	         -0.22110519	          0.87575847	          1.35391307	         -0.16531363	          0.94110858	          1.18456841	         -0.18920721	          0.90467995	          0.56102091	          0.00936686	          1.13800836	          0.60954237	         -0.28350836	          0.91465330	          0.62916118	         -0.05304284	          1.05036938	          0.63313842	         -0.31456366	          0.90415245	          0.54452950	         -0.08075297	          1.06133103	          0.54564053	         -0.31165278	          0.79068983	          0.18284753	         -0.02353702	          1.00650299	          0.22622779	         -0.38489169	          0.76916182	          0.16078262	         -0.09881014	          1.00245583	          0.18812650	         -0.31273666	          0.87120062	          0.03857657	         -0.13986580	          1.13070107	          0.05976561	         -0.30204824	
          0.49999994	          0.95154369	          0.95932257	         -0.18530220	          1.24644661	          2.38624668	          2.08487797	         -6.41100121	         -1.33620512	         11.63759041	         -5.49247360	         11.23153687	          0.00000000	          0.00000000	         21.74831390	          2.42790413	         -0.22339740	        -21.89416122	          0.35592991	          0.00000000	          0.00000000	        -15.45634747	          0.75075024	          0.22488526	         -5.84464321	        623.70128359	        -19.26536411	          0.85306024	          0.00000000	         -0.13271429	          0.00000000	          0.00000000	          0.00000000	          1.20245056	          0.00000000	         -0.21472551	          0.00000000	          1.42699170	          0.00000000	          0.00000000	          0.00000000	          0.00000000	          0.87017286	          0.89214766	         -0.18019053	          0.86919713	          0.86696386	         -0.11207408	          0.86498845	          0.87413418	         -0.26227346	          0.83333755	          0.46671277	         -0.12078924	          1.03272331	          0.47982293	         -0.26761568	          0.75040936	          0.06931135	         -0.15954413	          1.04067898	          0.08615585	         -0.26736981	          0.95154369	          0.95932257	         -0.18530220	          0.95487946	          0.95363933	         -0.06625337	          0.94820791	          0.96500576	         -0.30435103	          0.76389009	          0.99550527	         -0.14665070	          0.76686001	          0.99422854	         -0.23277953	          0.84680849	          0.46426746	         -0.06391390	          1.03185368	          0.48023868	         -0.32560766	          0.81393456	          0.47138986	         -0.17255858	          1.03384340	          0.45695123	         -0.21290822	          0.74054229	          0.06759379	         -0.12081827	          1.01715279	          0.08566099	         -0.29847080	          0.76116621	          0.08430785	         -0.18730262	          1.04898679	          0.10077187	         -0.24139243	          0.77748680	          1.42809236	         -0.15389246	          0.89949465	          1.34085906	         -0.11728136	          0.89650923	          1.34724438	         -0.22120006	          0.88182890	          1.35315347	         -0.16541852	          0.94736087	          1.18379164	         -0.18935733	          0.90806866	          0.56031477	          0.00940445	          1.14323866	          0.60837883	         -0.28304246	          0.91806263	          0.62867367	         -0.05307909	          1.05560565	          0.63227183	         -0.31480885	          0.90754449	          0.54389656	         -0.08127505	          1.06659257	          0.54427314	         -0.31117877	          0.79140610	          0.18287188	         -0.02327591	          1.02299976	          0.22475298	         -0.38468599	          0.76915318	          0.16090344	         -0.09884817	          1.02040565	          0.18665814	         -0.31267336	          0.87117451	          0.03852929	         -0.13982800	          1.15323460	          0.06129465	         -0.30007219	
